<svg height="512pt" viewBox="0 0 512 512" width="512pt" xmlns="http://www.w3.org/2000/svg"><path d="m385.984375 173.550781-67.292969 22.429688-46.050781-69.074219c-7.898437-11.84375-25.359375-11.882812-33.28125 0l-46.050781 69.074219-67.292969-22.429688c-14.527344-4.847656-28.949219 7.835938-25.9375 22.894531 29.722656 142.6875 25.132813 138.929688 32.730469 146.53125 67.925781 67.921876 178.449218 67.925782 246.378906 0 7.597656-7.597656 3.070312-4.128906 32.730469-146.53125 2.996093-14.972656-11.308594-27.769531-25.933594-22.894531zm-39.316406 145.195313c-51.160157 46.921875-130.179688 46.921875-181.335938 0l-19.269531-96.351563 49.089844 16.363281c8.554687 2.855469 17.960937-.375 22.964844-7.878906l37.882812-56.824218 37.882812 56.824218c5 7.503906 14.40625 10.730469 22.964844 7.878906l49.089844-16.363281zm-90.667969-318.746094c-141.484375 0-256 114.496094-256 256 0 141.484375 114.496094 256 256 256 141.484375 0 256-114.496094 256-256 0-141.484375-114.496094-256-256-256zm0 472c-119.378906 0-216-96.605469-216-216 0-119.378906 96.605469-216 216-216 119.378906 0 216 96.605469 216 216 0 119.378906-96.605469 216-216 216zm0 0"/></svg>
